# xmcd
#
# Track frame offsets:
#	150
#	7743
#	19851
#	30831
#	40134
#	49082
#	59005
#	70106
#	80602
#	88957
#	97990
#	106805
#	116094
#	125786
#	136077
#	148553
#	158295
#	169913
#	181558
#	189656
#	200393
#	211549
#	220169
#	231687
#	241450
#
# Disc length: 3338 seconds
#
# Revision: 0
# Processed by: cddbd v1.5.2PL0 Copyright (c) Steve Scherf et al.
# Submitted via: audiograbber 1.83.01
#
DISCID=4f0d0819
DTITLE=Various Artist - Kustom Rockers Vol 1
DYEAR=1900
DGENRE=
TTITLE0=mark robinson - pretty jane
TTITLE1=ronnie gill - geraldine
TTITLE2=the deuce coupe - smooth stick
TTITLE3=johnny fay - cindy
TTITLE4=arthur thomas - bee sticks to honey
TTITLE5=jerry moore - my babe
TTITLE6=the defenders - dragbeat
TTITLE7=russ veers - warm as toast
TTITLE8=the panics - bony moronie
TTITLE9=the busters - all american surfer
TTITLE10=tommy knackin - worry worry worry
TTITLE11=floyd lee - go boy
TTITLE12=kenny hinkles' frends - the bee
TTITLE13=trade martin - liverpool baby
TTITLE14=buddy heard - let's rock with me
TTITLE15=the swingtones - you know baby
TTITLE16=the deuce coupe - gear masher
TTITLE17=the chancellors - i'm a man
TTITLE18=the tikis - rock n robin
TTITLE19=the all-niters - summertime blues
TTITLE20=the vibrasonics - drag race
TTITLE21=gerry langford - tell me
TTITLE22=los doltons - ray tablista
TTITLE23=king victor - ecstacy
TTITLE24=ken west - you give me the willies
EXTD=
EXTT0=
EXTT1=
EXTT2=
EXTT3=
EXTT4=
EXTT5=
EXTT6=
EXTT7=
EXTT8=
EXTT9=
EXTT10=
EXTT11=
EXTT12=
EXTT13=
EXTT14=
EXTT15=
EXTT16=
EXTT17=
EXTT18=
EXTT19=
EXTT20=
EXTT21=
EXTT22=
EXTT23=
EXTT24=
PLAYORDER=
